<svg width="19" height="24" viewBox="0 0 19 24" fill="none" xmlns="http://www.w3.org/2000/svg">
<g filter="url(#filter0_d_1_130)">
<path d="M5.50814 9.2492L5.51345 9.25698L9.5 15.1116L13.4866 9.25698L13.4919 9.2492L13.4975 9.24161C14.2363 8.23991 14.5723 6.879 14.4871 5.5225C14.4019 4.16584 13.8992 2.86989 13.0326 1.98859C11.0808 0.00382429 7.91955 0.00377946 5.96742 1.98859L5.50814 9.2492ZM5.50814 9.2492L5.50255 9.24161M5.50814 9.2492L5.50255 9.24161M5.50255 9.24161C4.76372 8.23991 4.42775 6.879 4.51291 5.5225M5.50255 9.24161L4.51291 5.5225M4.51291 5.5225C4.59808 4.16585 5.10077 2.86991 5.9674 1.98862L4.51291 5.5225ZM7.23807 5.53836C7.23807 6.82627 8.26679 7.88453 9.55356 7.88453C10.8403 7.88453 11.869 6.82627 11.869 5.53836C11.869 4.25045 10.8403 3.19219 9.55356 3.19219C8.26679 3.19219 7.23807 4.25045 7.23807 5.53836Z" stroke="white" shape-rendering="crispEdges"/>
</g>
<defs>
<filter id="filter0_d_1_130" x="0" y="0" width="19" height="24" filterUnits="userSpaceOnUse" color-interpolation-filters="sRGB">
<feFlood flood-opacity="0" result="BackgroundImageFix"/>
<feColorMatrix in="SourceAlpha" type="matrix" values="0 0 0 0 0 0 0 0 0 0 0 0 0 0 0 0 0 0 127 0" result="hardAlpha"/>
<feOffset dy="4"/>
<feGaussianBlur stdDeviation="2"/>
<feComposite in2="hardAlpha" operator="out"/>
<feColorMatrix type="matrix" values="0 0 0 0 0 0 0 0 0 0 0 0 0 0 0 0 0 0 0.25 0"/>
<feBlend mode="normal" in2="BackgroundImageFix" result="effect1_dropShadow_1_130"/>
<feBlend mode="normal" in="SourceGraphic" in2="effect1_dropShadow_1_130" result="shape"/>
</filter>
</defs>
</svg>
